<?xml version="1.0" standalone="no"?>
<!DOCTYPE svg PUBLIC "-//W3C//DTD SVG 20010904//EN"
 "http://www.w3.org/TR/2001/REC-SVG-20010904/DTD/svg10.dtd">
<svg version="1.0" xmlns="http://www.w3.org/2000/svg"
 width="53.87pt" height="43.61pt"
viewBox="0 0 280.000000 158.000000"
 preserveAspectRatio="xMidYMid meet">

<g transform="translate(0.000000,158.000000) scale(0.100000,-0.100000)"
fill="#000000" stroke="none">
<path d="M1394 1504 c3 -8 6 -20 6 -26 0 -6 7 -7 16 -4 8 3 12 2 9 -4 -3 -6
-12 -10 -18 -10 -8 0 -13 -17 -14 -46 0 -32 2 -43 10 -35 12 12 59 5 107 -17
51 -23 138 -27 183 -9 l37 16 0 64 0 65 -42 -15 c-51 -18 -140 -13 -185 11
-17 8 -50 18 -73 21 -36 4 -41 3 -36 -11z m63 -10 c-3 -3 -12 -4 -19 -1 -8 3
-5 6 6 6 11 1 17 -2 13 -5z m250 -30 c-3 -3 -12 -4 -19 -1 -8 3 -5 6 6 6 11 1
17 -2 13 -5z"/>
<path d="M1390 1278 c0 -9 -10 -23 -22 -32 l-23 -17 23 11 c24 12 39 36 28 47
-3 4 -6 -1 -6 -9z"/>
<path d="M1410 1251 c0 -5 7 -12 16 -15 14 -5 15 -4 4 9 -14 17 -20 19 -20 6z"/>
<path d="M1457 1219 c7 -7 15 -10 18 -7 3 3 -2 9 -12 12 -14 6 -15 5 -6 -5z"/>
<path d="M1377 1209 c7 -7 15 -10 18 -7 3 3 -2 9 -12 12 -14 6 -15 5 -6 -5z"/>
<path d="M1280 1185 c-7 -8 -8 -15 -2 -15 5 0 15 7 22 15 7 8 8 15 2 15 -5 0
-15 -7 -22 -15z"/>
<path d="M1524 1169 c14 -11 24 -25 21 -30 -4 -5 2 -6 11 -2 15 5 13 10 -12
30 -16 12 -33 23 -38 23 -5 0 3 -9 18 -21z"/>
<path d="M1305 1170 c-3 -5 -2 -10 4 -10 5 0 13 5 16 10 3 6 2 10 -4 10 -5 0
-13 -4 -16 -10z"/>
<path d="M1200 1118 c-9 -20 -9 -21 2 -7 7 9 20 18 28 22 12 4 12 6 -2 6 -10
1 -22 -9 -28 -21z"/>
<path d="M1583 1120 c-1 -10 8 -26 20 -37 l22 -18 -18 22 c-11 12 -16 26 -13
32 4 5 3 12 -2 15 -4 2 -8 -4 -9 -14z"/>
<path d="M1336 1113 c2 -7 -7 -18 -19 -25 -41 -24 -106 -73 -107 -81 0 -4 35
18 78 49 86 63 108 82 75 65 -12 -6 -23 -8 -26 -3 -2 4 -2 1 -1 -5z"/>
<path d="M1455 1095 c17 -14 35 -25 40 -25 6 0 -2 8 -17 18 -16 9 -28 20 -28
24 0 5 -6 8 -12 8 -7 -1 1 -12 17 -25z"/>
<path d="M1148 1086 c-25 -23 -27 -36 -5 -36 6 0 7 3 4 7 -4 3 3 17 15 30 28
30 21 29 -14 -1z"/>
<path d="M1615 1100 c3 -5 11 -10 16 -10 6 0 7 5 4 10 -3 6 -11 10 -16 10 -6
0 -7 -4 -4 -10z"/>
<path d="M1643 1075 c-7 -8 -9 -16 -4 -19 5 -3 12 1 15 10 8 22 4 25 -11 9z"/>
<path d="M1085 1040 c-14 -15 -15 -20 -4 -21 8 -1 3 -4 -10 -8 -14 -4 -26 -12
-27 -19 -1 -7 0 -8 2 -3 3 6 14 7 28 1 21 -8 23 -6 20 18 -1 15 2 32 8 39 17
21 3 15 -17 -7z"/>
<path d="M1520 1046 c0 -2 24 -20 53 -39 28 -19 72 -51 96 -70 47 -37 69 -34
67 8 -1 15 -8 20 -28 20 l-28 1 22 -23 c27 -29 16 -30 -23 -2 -16 11 -26 25
-23 31 5 7 2 8 -5 4 -7 -5 -21 0 -32 10 -10 9 -28 22 -38 28 -10 6 -28 17 -40
24 -11 7 -21 11 -21 8z m210 -96 c0 -5 -2 -10 -4 -10 -3 0 -8 5 -11 10 -3 6
-1 10 4 10 6 0 11 -4 11 -10z"/>
<path d="M1701 1042 c-1 -7 9 -16 22 -21 12 -5 31 -18 41 -30 11 -11 24 -21
30 -21 14 0 -56 59 -71 60 -6 0 -14 6 -16 13 -4 9 -6 9 -6 -1z"/>
<path d="M976 960 c-44 -34 -40 -41 5 -9 29 20 40 14 17 -9 -9 -9 -9 -12 0
-12 7 0 12 5 12 11 0 5 5 7 10 4 6 -3 10 -2 10 4 0 5 -5 13 -10 16 -6 4 -8 11
-5 16 9 14 3 11 -39 -21z"/>
<path d="M1137 957 c-3 -8 -22 -22 -42 -31 -20 -10 -34 -20 -31 -23 6 -6 69
31 86 52 7 9 8 15 2 15 -5 0 -12 -6 -15 -13z"/>
<path d="M1863 923 c9 -11 14 -23 10 -28 -5 -4 -2 -5 5 -1 7 4 20 2 28 -5 8
-6 16 -10 18 -8 2 2 -15 17 -38 33 -25 18 -34 21 -23 9z"/>
<path d="M957 893 c-4 -3 -7 -11 -7 -17 0 -6 5 -5 12 2 7 7 19 12 28 12 12 -1
11 -4 -4 -15 -11 -8 -15 -15 -9 -15 14 0 34 25 26 33 -8 9 -38 9 -46 0z"/>
<path d="M1748 883 c13 -3 19 -9 16 -15 -4 -7 -2 -8 5 -4 17 11 3 26 -22 25
-22 -2 -22 -2 1 -6z"/>
<path d="M840 860 c-9 -6 -10 -10 -3 -10 6 0 15 5 18 10 8 12 4 12 -15 0z"/>
<path d="M875 860 c-3 -5 -2 -10 4 -10 5 0 13 5 16 10 3 6 2 10 -4 10 -5 0
-13 -4 -16 -10z"/>
<path d="M1786 862 c-2 -4 4 -8 14 -8 10 0 16 4 14 8 -3 4 -9 8 -14 8 -5 0
-11 -4 -14 -8z"/>
<path d="M980 840 c-8 -5 -12 -12 -9 -15 4 -3 12 1 19 10 14 17 11 19 -10 5z"/>
<path d="M1912 834 c-8 -9 -9 -14 -2 -14 6 0 8 -4 5 -10 -3 -5 -2 -10 4 -10
15 0 24 20 9 21 -7 0 0 5 16 10 25 7 36 4 63 -17 18 -14 33 -21 33 -17 0 14
-63 47 -90 49 -14 1 -31 -5 -38 -12z"/>
<path d="M777 813 c-20 -14 -35 -28 -33 -30 2 -3 23 9 47 26 51 37 40 40 -14
4z"/>
<path d="M910 789 c0 -5 5 -7 10 -4 6 3 10 8 10 11 0 2 -4 4 -10 4 -5 0 -10
-5 -10 -11z"/>
<path d="M1937 793 c-5 -7 -5 -17 -2 -23 3 -5 1 -10 -6 -10 -16 0 8 -28 35
-41 19 -9 19 -9 -1 10 -27 23 -29 31 -8 31 8 0 15 -4 15 -10 0 -5 7 -10 16
-10 11 0 14 -6 9 -20 -8 -24 20 -39 38 -20 9 10 9 11 -1 6 -7 -5 -15 2 -21 17
-5 13 -16 27 -25 30 -9 4 -14 12 -12 19 1 7 1 10 -1 6 -8 -14 -21 -8 -25 10
-3 12 -6 14 -11 5z"/>
<path d="M835 780 c-6 -10 34 -35 43 -26 3 3 0 6 -8 6 -9 0 -10 3 -2 13 8 10
6 13 -8 14 -11 1 -22 -2 -25 -7z"/>
<path d="M2067 759 c15 -30 21 -33 40 -21 8 5 0 15 -22 29 l-33 22 15 -30z
m28 -9 c3 -5 1 -10 -4 -10 -6 0 -11 5 -11 10 0 6 2 10 4 10 3 0 8 -4 11 -10z"/>
<path d="M720 775 c0 -5 4 -16 9 -23 6 -10 11 -9 22 4 11 14 11 16 0 10 -8 -5
-17 -3 -22 5 -5 8 -9 10 -9 4z"/>
<path d="M686 745 c-11 -8 -15 -15 -9 -15 6 0 16 7 23 15 16 19 11 19 -14 0z"/>
<path d="M2032 731 c-11 -6 -9 -9 5 -13 12 -3 20 0 20 8 0 16 -6 17 -25 5z"/>
<path d="M2140 725 c8 -11 19 -23 23 -26 5 -3 2 -9 -7 -12 -9 -4 -16 -1 -16 5
0 6 -6 6 -16 -3 -14 -12 -14 -14 2 -19 10 -4 25 -1 32 7 15 15 29 10 85 -35
32 -25 34 -31 20 -37 -12 -5 -14 -9 -6 -12 7 -2 18 1 26 8 11 11 9 17 -12 34
-14 11 -39 29 -56 39 -16 10 -43 30 -60 45 -19 17 -24 19 -15 6z"/>
<path d="M815 718 c-11 -6 -22 -14 -25 -18 -3 -4 -12 -10 -20 -13 -13 -5 -13
-5 0 -6 8 0 29 11 45 24 32 27 32 31 0 13z"/>
<path d="M655 710 c-3 -5 -1 -10 4 -10 6 0 11 5 11 10 0 6 -2 10 -4 10 -3 0
-8 -4 -11 -10z"/>
<path d="M590 675 c-11 -13 -10 -14 4 -9 9 3 16 10 16 15 0 13 -6 11 -20 -6z"/>
<path d="M2045 660 c10 -11 20 -20 23 -20 3 0 -3 9 -13 20 -10 11 -20 20 -23
20 -3 0 3 -9 13 -20z"/>
<path d="M711 645 c-17 -16 -32 -23 -46 -19 -13 3 -27 -1 -34 -10 -10 -12 -10
-16 -2 -16 7 0 9 -4 6 -10 -3 -5 -3 -10 1 -10 8 0 114 80 114 86 0 10 -17 1
-39 -21z m-46 -35 c-3 -5 -11 -10 -16 -10 -6 0 -7 5 -4 10 3 6 11 10 16 10 6
0 7 -4 4 -10z"/>
<path d="M555 649 c-4 -6 -5 -12 -2 -15 2 -3 7 2 10 11 7 17 1 20 -8 4z"/>
<path d="M525 630 c-3 -5 -1 -10 4 -10 6 0 11 5 11 10 0 6 -2 10 -4 10 -3 0
-8 -4 -11 -10z"/>
<path d="M2105 615 c17 -14 34 -25 38 -25 5 0 15 -7 23 -15 9 -8 20 -15 26
-15 6 0 -2 10 -18 23 -16 12 -32 21 -35 20 -4 -1 -15 7 -24 17 -10 11 -23 20
-29 20 -6 -1 3 -12 19 -25z"/>
<path d="M788 614 c-16 -5 -18 -23 -18 -193 l0 -188 33 -6 c57 -9 128 10 163
44 73 71 72 238 -1 309 -27 26 -40 31 -96 35 -35 2 -72 2 -81 -1z m132 -102
c15 -19 20 -40 20 -88 0 -53 -4 -67 -26 -93 -16 -19 -35 -31 -50 -31 l-24 0 0
118 c0 65 2 121 5 124 12 12 57 -6 75 -30z"/>
<path d="M1155 610 c-63 -26 -98 -95 -98 -196 -1 -127 68 -204 169 -189 45 6
45 7 42 43 -3 32 -7 37 -28 38 -83 2 -115 41 -108 131 6 72 36 105 92 101 39
-2 41 -1 47 32 5 23 3 37 -4 42 -16 10 -87 9 -112 -2z"/>
<path d="M1357 599 c-15 -11 -32 -38 -38 -59 -10 -33 -9 -47 5 -85 10 -25 21
-45 25 -45 5 0 26 -13 49 -29 32 -24 39 -35 35 -52 -5 -19 -11 -21 -59 -17
l-52 5 -7 -35 c-7 -39 0 -47 54 -57 81 -15 149 54 138 139 -6 41 -21 58 -104
122 -24 19 -26 23 -13 39 11 13 24 16 56 11 41 -5 42 -5 47 27 6 41 -13 57
-69 57 -27 0 -51 -7 -67 -21z"/>
<path d="M1636 605 c-63 -33 -91 -93 -90 -195 1 -124 71 -200 171 -185 44 6
44 7 41 43 -3 36 -4 37 -47 39 -59 3 -82 27 -89 91 -5 59 12 118 39 133 11 6
37 9 57 7 35 -3 37 -2 40 31 2 20 -2 37 -10 42 -21 14 -80 10 -112 -6z"/>
<path d="M1874 610 c-83 -33 -117 -205 -62 -313 50 -100 166 -98 219 4 28 56
30 177 4 232 -34 73 -97 103 -161 77z m93 -107 c20 -49 13 -155 -12 -183 -45
-49 -88 -7 -93 89 -5 88 14 131 59 131 25 0 32 -6 46 -37z"/>
<path d="M510 596 c7 -7 13 -7 20 0 6 6 3 10 -10 10 -13 0 -16 -4 -10 -10z"/>
<path d="M458 573 c7 -3 16 -2 19 1 4 3 -2 6 -13 5 -11 0 -14 -3 -6 -6z"/>
<path d="M2338 573 c6 -2 12 -11 12 -19 0 -8 7 -14 16 -14 9 0 30 -9 47 -21
l32 -21 -30 26 c-16 14 -35 26 -41 26 -7 0 -14 7 -18 15 -3 8 -11 15 -18 14
-10 0 -10 -2 0 -6z"/>
<path d="M2205 550 c-3 -5 -2 -10 4 -10 5 0 13 5 16 10 3 6 2 10 -4 10 -5 0
-13 -4 -16 -10z"/>
<path d="M423 530 c-1 -16 1 -17 12 -7 7 6 11 15 8 20 -8 13 -19 7 -20 -13z"/>
<path d="M546 542 c-2 -4 4 -8 14 -8 10 0 16 4 14 8 -3 4 -9 8 -14 8 -5 0 -11
-4 -14 -8z"/>
<path d="M2221 527 c2 -2 20 -15 40 -29 36 -26 36 -27 34 -5 -4 36 -4 37 -17
37 -9 0 -9 -3 0 -12 23 -23 12 -29 -17 -9 -16 12 -33 21 -37 21 -4 0 -5 -1 -3
-3z"/>
<path d="M440 505 c-7 -9 -11 -18 -8 -20 3 -3 11 1 18 10 7 9 11 18 8 20 -3 3
-11 -1 -18 -10z"/>
<path d="M2392 504 c10 -10 20 -16 22 -13 3 3 -5 11 -17 18 -21 13 -21 12 -5
-5z"/>
<path d="M359 502 c9 -7 10 -11 2 -15 -7 -4 -8 -5 0 -4 15 3 13 21 -3 25 -10
3 -10 2 1 -6z"/>
<path d="M2465 480 c10 -11 20 -20 23 -20 3 0 -3 9 -13 20 -10 11 -20 20 -23
20 -3 0 3 -9 13 -20z"/>
<path d="M320 475 c-8 -9 -8 -15 -2 -15 12 0 26 19 19 26 -2 2 -10 -2 -17 -11z"/>
<path d="M468 466 c-47 -28 -55 -36 -31 -30 17 5 86 54 73 53 -3 -1 -22 -11
-42 -23z"/>
<path d="M2320 460 c8 -5 22 -9 30 -9 10 0 8 3 -5 9 -27 12 -43 12 -25 0z"/>
<path d="M265 435 c-26 -22 -27 -24 -8 -22 12 0 20 3 18 6 -3 2 2 13 12 23 22
25 14 22 -22 -7z"/>
<path d="M2495 450 c-3 -5 -1 -10 4 -10 6 0 11 5 11 10 0 6 -2 10 -4 10 -3 0
-8 -4 -11 -10z"/>
<path d="M2362 441 c-10 -6 -10 -10 2 -21 9 -7 14 -15 12 -19 -6 -9 97 -1 107
9 5 4 1 10 -7 13 -9 4 -16 2 -16 -4 0 -6 -18 -9 -42 -7 -34 2 -43 7 -42 21 1
9 1 17 0 17 0 0 -7 -4 -14 -9z"/>
<path d="M2515 430 c-3 -5 0 -7 8 -4 8 3 20 -2 27 -11 7 -8 17 -15 23 -15 5 0
-2 9 -16 20 -29 23 -33 24 -42 10z"/>
<path d="M385 410 c10 -11 20 -18 23 -16 5 6 -23 36 -34 36 -4 0 1 -9 11 -20z"/>
<path d="M2285 390 c-19 -8 -19 -9 3 -9 12 -1 22 4 22 9 0 6 -1 10 -2 9 -2 0
-12 -4 -23 -9z"/>
<path d="M2330 390 c0 -5 5 -10 11 -10 5 0 7 5 4 10 -3 6 -8 10 -11 10 -2 0
-4 -4 -4 -10z"/>
<path d="M149 351 l-46 -37 86 -2 c47 -1 111 2 141 7 39 6 20 7 -67 3 -71 -3
-123 -1 -123 4 1 5 17 21 37 37 20 15 32 27 27 26 -5 0 -30 -17 -55 -38z"/>
<path d="M458 383 c12 -2 30 -2 40 0 9 3 -1 5 -23 4 -22 0 -30 -2 -17 -4z"/>
<path d="M573 383 c9 -2 25 -2 35 0 9 3 1 5 -18 5 -19 0 -27 -2 -17 -5z"/>
<path d="M2143 383 c15 -2 39 -2 55 0 15 2 2 4 -28 4 -30 0 -43 -2 -27 -4z"/>
<path d="M2570 380 c-11 -7 -11 -10 -2 -10 7 0 10 -4 7 -10 -3 -5 1 -10 11
-10 13 0 14 3 5 14 -9 11 -9 15 1 19 7 3 9 6 3 6 -5 0 -17 -4 -25 -9z"/>
<path d="M450 360 c-11 -7 -5 -8 20 -4 43 8 51 14 19 14 -13 0 -31 -5 -39 -10z"/>
<path d="M2310 360 c18 -12 30 -13 30 -2 0 4 -10 9 -22 9 -18 2 -20 0 -8 -7z"/>
<path d="M2615 359 c-9 -14 -2 -20 14 -10 8 6 9 11 3 15 -6 3 -14 1 -17 -5z"/>
<path d="M2118 295 c-1 -30 0 -55 5 -55 4 0 7 25 7 55 0 71 -7 71 -12 0z"/>
<path d="M2233 343 c9 -2 25 -2 35 0 9 3 1 5 -18 5 -19 0 -27 -2 -17 -5z"/>
<path d="M425 330 c3 -5 13 -10 21 -10 8 0 12 5 9 10 -3 6 -13 10 -21 10 -8 0
-12 -4 -9 -10z"/>
<path d="M643 295 c0 -27 2 -38 4 -22 2 15 2 37 0 50 -2 12 -4 0 -4 -28z"/>
<path d="M2656 325 c-3 -9 0 -15 9 -15 9 0 12 6 9 15 -4 8 -7 15 -9 15 -2 0
-5 -7 -9 -15z"/>
<path d="M583 273 c1 -36 4 -43 21 -43 16 0 18 3 8 9 -8 5 -18 24 -22 42 -8
34 -9 34 -7 -8z"/>
<path d="M2140 306 c0 -4 7 -14 15 -22 8 -9 15 -11 15 -6 0 5 -7 15 -15 22 -8
7 -15 9 -15 6z"/>
<path d="M2185 291 c-3 -5 -1 -12 5 -16 5 -3 10 1 10 9 0 18 -6 21 -15 7z"/>
<path d="M2188 235 c-6 -30 -3 -43 8 -33 3 4 4 19 2 35 l-3 28 -7 -30z"/>
<path d="M2118 223 c7 -3 16 -2 19 1 4 3 -2 6 -13 5 -11 0 -14 -3 -6 -6z"/>
<path d="M2145 209 c-11 -16 -1 -19 13 -3 7 8 8 14 3 14 -5 0 -13 -5 -16 -11z"/>
<path d="M80 75 c0 -48 11 -56 51 -35 21 12 26 54 8 66 -8 4 -9 -1 -4 -15 7
-24 -9 -51 -31 -51 -22 0 -18 67 4 73 13 4 11 5 -5 6 -21 1 -23 -4 -23 -44z"/>
<path d="M362 108 c-28 -28 -7 -79 32 -77 17 0 15 3 -7 11 -35 13 -34 47 3 65
22 11 23 13 5 13 -12 0 -26 -5 -33 -12z"/>
<path d="M493 80 c1 -52 17 -52 17 0 0 22 -4 40 -9 40 -5 0 -8 -18 -8 -40z"/>
<path d="M533 75 c0 -27 2 -38 4 -22 2 15 2 37 0 50 -2 12 -4 0 -4 -28z"/>
<path d="M853 104 c-4 -11 2 -23 18 -35 l24 -18 -25 -10 c-25 -10 -25 -10 -2
-10 32 -1 41 29 14 47 -27 17 -28 29 -4 35 16 4 16 5 -1 6 -10 0 -20 -6 -24
-15z"/>
<path d="M980 75 c0 -27 2 -46 5 -43 8 8 9 77 2 85 -4 3 -7 -15 -7 -42z"/>
<path d="M1213 75 c0 -27 2 -38 4 -22 2 15 2 37 0 50 -2 12 -4 0 -4 -28z"/>
<path d="M1282 108 c-27 -27 -7 -78 30 -78 10 0 18 4 18 10 0 5 -6 7 -13 4
-18 -7 -41 22 -33 41 3 9 16 20 28 25 22 8 22 9 3 9 -12 1 -26 -4 -33 -11z"/>
<path d="M1987 113 c-4 -3 -7 -21 -7 -39 0 -24 5 -34 20 -39 37 -12 61 25 44
69 -6 16 -45 22 -57 9z m51 -34 c3 -26 -19 -46 -39 -33 -11 6 -12 48 -2 58 15
14 38 0 41 -25z"/>
<path d="M1836 73 c10 -41 19 -47 18 -11 0 18 -6 34 -13 36 -8 3 -10 -5 -5
-25z"/>
<path d="M2506 73 c10 -41 19 -47 18 -11 0 18 -6 34 -13 36 -8 3 -10 -5 -5
-25z"/>
<path d="M170 65 c0 -14 7 -28 16 -32 21 -8 46 19 38 40 -10 27 -22 20 -16 -9
4 -20 1 -25 -9 -22 -8 3 -14 15 -13 27 0 11 -3 21 -8 21 -4 0 -8 -11 -8 -25z"/>
<path d="M248 66 c-3 -15 -1 -26 3 -26 5 0 9 9 9 20 0 29 28 25 33 -5 4 -23 4
-23 3 2 -1 39 -41 46 -48 9z"/>
<path d="M454 81 c3 -5 -3 -11 -14 -14 -13 -3 -18 -10 -14 -21 3 -9 10 -16 15
-16 4 0 6 7 3 15 -4 8 -1 15 4 15 6 0 13 -8 15 -17 3 -10 5 -3 6 15 0 17 -4
32 -10 32 -5 0 -8 -4 -5 -9z"/>
<path d="M564 75 c-10 -24 4 -45 28 -44 23 0 23 0 -2 11 -23 10 -23 11 -5 15
27 6 39 19 26 27 -6 4 -11 2 -11 -3 0 -6 -7 -11 -16 -11 -8 0 -12 5 -9 10 3 6
4 10 0 10 -3 0 -8 -7 -11 -15z"/>
<path d="M638 65 c2 -14 -2 -33 -9 -42 -12 -14 -12 -16 1 -11 16 5 28 78 12
78 -5 0 -7 -11 -4 -25z"/>
<path d="M670 65 c0 -14 7 -28 16 -32 20 -8 49 21 41 41 -10 25 -25 18 -19 -9
3 -19 0 -25 -13 -25 -13 0 -16 6 -13 25 3 14 1 25 -3 25 -5 0 -9 -11 -9 -25z"/>
<path d="M748 65 c-3 -14 -1 -28 3 -31 5 -3 9 6 9 20 0 35 27 34 33 -1 4 -26
4 -26 6 5 1 27 -2 32 -23 32 -17 0 -25 -7 -28 -25z"/>
<path d="M922 63 c2 -19 10 -29 23 -31 18 -2 18 -2 3 8 -10 6 -18 17 -18 25 0
7 8 16 18 18 12 3 11 5 -6 6 -20 1 -23 -3 -20 -26z"/>
<path d="M1018 60 c2 -17 9 -30 14 -30 6 0 7 7 4 16 -3 9 -6 22 -6 30 0 8 -4
14 -8 14 -5 0 -7 -13 -4 -30z"/>
<path d="M1060 79 c0 -5 5 -7 10 -4 6 3 10 8 10 11 0 2 -4 4 -10 4 -5 0 -10
-5 -10 -11z"/>
<path d="M1097 71 c5 -20 -18 -42 -25 -23 -2 7 -9 12 -15 12 -6 0 -4 -7 5 -16
9 -9 24 -14 32 -11 17 7 23 57 7 57 -5 0 -7 -8 -4 -19z"/>
<path d="M1137 83 c-24 -23 6 -59 39 -46 19 7 15 45 -6 51 -13 5 -13 3 -1 -12
10 -12 11 -20 3 -28 -15 -15 -35 1 -29 23 5 20 4 23 -6 12z"/>
<path d="M1344 75 c-6 -15 12 -45 27 -45 16 0 38 31 33 45 -9 22 -21 18 -20
-6 1 -12 -5 -24 -13 -27 -10 -3 -13 2 -9 22 6 28 -9 36 -18 11z"/>
<path d="M1420 58 c0 -17 3 -28 7 -24 4 4 8 15 8 23 0 26 23 26 28 1 l4 -23 2
23 c2 32 29 28 34 -5 4 -26 4 -26 6 5 1 32 0 32 -44 32 -44 0 -45 -1 -45 -32z"/>
<path d="M1538 65 c-3 -14 -2 -28 2 -30 4 -3 10 9 12 25 5 36 -8 40 -14 5z"/>
<path d="M1574 65 c-1 -14 2 -25 7 -25 5 0 9 9 9 20 0 11 5 20 10 20 6 0 10
-9 10 -20 0 -11 5 -20 11 -20 6 0 9 10 7 23 -2 15 -11 23 -28 25 -21 2 -25 -2
-26 -23z"/>
<path d="M1654 60 c1 -18 7 -26 24 -28 19 -3 22 1 21 30 -2 30 -2 31 -6 6 -5
-34 -30 -37 -36 -5 -3 19 -4 19 -3 -3z"/>
<path d="M1723 65 c0 -14 3 -25 8 -25 5 0 9 9 9 20 0 27 18 25 30 -2 8 -22 9
-22 9 5 1 23 -3 27 -28 27 -24 0 -28 -4 -28 -25z"/>
<path d="M1802 65 c0 -16 2 -22 5 -12 2 9 2 23 0 30 -3 6 -5 -1 -5 -18z"/>
<path d="M1885 74 c5 -10 9 -29 9 -41 1 -31 5 -29 22 12 18 44 18 58 -1 25
-10 -18 -14 -20 -15 -8 0 9 -5 20 -12 24 -8 5 -9 2 -3 -12z"/>
<path d="M2070 63 c0 -29 2 -29 19 5 10 18 9 22 -4 22 -10 0 -15 -9 -15 -27z"/>
<path d="M2120 65 c0 -14 3 -25 8 -25 4 0 7 11 7 25 0 14 -3 25 -7 25 -5 0 -8
-11 -8 -25z"/>
<path d="M2155 50 c0 -22 3 -40 6 -40 9 0 16 40 11 63 -6 31 -17 18 -17 -23z"/>
<path d="M2228 65 c3 -19 0 -25 -13 -25 -15 0 -16 2 -4 17 12 14 12 16 -1 11
-23 -7 -18 -33 8 -36 19 -3 22 1 22 27 0 17 -4 31 -9 31 -4 0 -6 -11 -3 -25z"/>
<path d="M2263 66 c4 -36 17 -45 17 -13 0 35 27 36 33 2 4 -23 4 -23 3 2 -1
23 -6 29 -29 31 -25 3 -27 1 -24 -22z"/>
<path d="M2342 60 c0 -19 2 -27 5 -17 2 9 2 25 0 35 -3 9 -5 1 -5 -18z"/>
<path d="M2383 81 c17 -6 17 -8 3 -20 -23 -19 -20 -26 12 -28 15 0 19 1 10 4
-22 6 -22 12 -1 35 15 17 15 18 -13 17 -23 0 -25 -2 -11 -8z"/>
<path d="M2468 60 c6 -39 12 -39 12 0 0 17 -4 30 -8 30 -5 0 -7 -13 -4 -30z"/>
<path d="M2552 65 c0 -16 2 -22 5 -12 2 9 2 23 0 30 -3 6 -5 -1 -5 -18z"/>
<path d="M2583 74 c-8 -20 21 -49 41 -41 17 7 23 57 7 57 -5 0 -7 -8 -4 -19 3
-10 -1 -22 -7 -26 -17 -10 -31 16 -18 32 7 9 7 13 -1 13 -6 0 -14 -7 -18 -16z"/>
<path d="M2660 60 c0 -39 6 -39 12 0 3 17 1 30 -4 30 -4 0 -8 -13 -8 -30z"/>
<path d="M2698 65 c2 -14 9 -25 14 -25 6 0 7 7 4 16 -3 9 -6 20 -6 25 0 5 -4
9 -9 9 -4 0 -6 -11 -3 -25z"/>
<path d="M2435 60 c-8 -13 3 -30 18 -29 8 0 8 2 -1 6 -10 4 -10 8 -1 19 8 9 8
14 1 14 -6 0 -14 -4 -17 -10z"/>
</g>
</svg>
